# xmcd
#
# Track frame offsets:
#	150
#	14475
#	28766
#	37773
#	55147
#	66930
#	82591
#	94096
#	103406
#	118361
#	130636
#	143240
#	152342
#	162074
#	175436
#	184438
#	197391
#	209668
#	222480
#	231190
#	245223
#	253831
#	266386
#	276337
#	286495
#	297074
#	311419
#
# Disc length: 4364 seconds
#
# Revision: 1
# Processed by: cddbd v1.5.1PL0 Copyright (c) Steve Scherf et al.
# Submitted via: audiograbber 1.83.01
#
DISCID=96110a1b
DTITLE=Dick Curless - A Tombstone every Miles  Vol.3
DYEAR=1900
DGENRE=
TTITLE0=High Noon
TTITLE1=Strawberry roan
TTITLE2=Red River Valley
TTITLE3=Cowboy jack
TTITLE4=On top of the old Smoky
TTITLE5=Home on the Range
TTITLE6=Burry me not on the lone Prairie
TTITLE7=I ride an old paint
TTITLE8=Whoopie ti yi yo
TTITLE9=Green grow the Lilacs
TTITLE10=The last rondup
TTITLE11=The crawdad Song
TTITLE12=The Rock Island line
TTITLE13=Don't fence me in
TTITLE14=The big Rock candy Mountain
TTITLE15=Rovin' Gambler
TTITLE16=Molly darlin'
TTITLE17=The yellow Rose of Texas
TTITLE18=Liza Jane
TTITLE19=Careless Love
TTITLE20=Buffalo gal
TTITLE21=San Antonio Rose
TTITLE22=Little brown Jug
TTITLE23=I've been working on the Railroad
TTITLE24=Silver threads among the Gold
TTITLE25=I was seeing Nelli home
TTITLE26=My old Kentucky home
EXTD=
EXTT0=
EXTT1=
EXTT2=
EXTT3=
EXTT4=
EXTT5=
EXTT6=
EXTT7=
EXTT8=
EXTT9=
EXTT10=
EXTT11=
EXTT12=
EXTT13=
EXTT14=
EXTT15=
EXTT16=
EXTT17=
EXTT18=
EXTT19=
EXTT20=
EXTT21=
EXTT22=
EXTT23=
EXTT24=
EXTT25=
EXTT26=
PLAYORDER=
